<svg width="2254" height="460" viewBox="0 0 2254 460" fill="none" xmlns="http://www.w3.org/2000/svg">
<g clip-path="url(#clip0_1_3)">
<rect x="5" y="158" width="282" height="215" rx="45" fill="white" stroke="#182D38" stroke-width="10"/>
<path d="M40 149.5C40 144.806 43.8056 141 48.5 141H79.5C84.1944 141 88 144.806 88 149.5C88 154.194 84.1944 158 79.5 158H48.5C43.8056 158 40 154.194 40 149.5Z" fill="white" stroke="#182D38" stroke-width="10"/>
<line x1="8.74228e-07" y1="254" x2="292" y2="254" stroke="#182D38" stroke-width="20"/>
<line x1="4.37114e-07" y1="294" x2="292" y2="294" stroke="#182D38" stroke-width="10"/>
<line x1="8" y1="334" x2="285" y2="334" stroke="#182D38" stroke-width="10"/>
<line x1="45" y1="372" x2="45" y2="264" stroke="#182D38" stroke-width="10"/>
<line x1="85" y1="372" x2="85" y2="264" stroke="#182D38" stroke-width="10"/>
<line x1="125" y1="372" x2="125" y2="264" stroke="#182D38" stroke-width="10"/>
<line x1="165" y1="372" x2="165" y2="264" stroke="#182D38" stroke-width="10"/>
<line x1="205" y1="372" x2="205" y2="264" stroke="#182D38" stroke-width="10"/>
<line x1="245" y1="372" x2="245" y2="264" stroke="#182D38" stroke-width="10"/>
<circle cx="146" cy="242" r="70" fill="white" stroke="#182D38" stroke-width="10"/>
<circle cx="146" cy="242" r="45" fill="#38B2B8" stroke="#182D38" stroke-width="10"/>
<circle cx="140" cy="221" r="10" fill="white"/>
<circle cx="125" cy="236" r="5" fill="white"/>
<path d="M35 191H65" stroke="#182D38" stroke-width="10" stroke-linecap="round"/>
<circle cx="250" cy="192" r="15" fill="#38B2B8" stroke="#182D38" stroke-width="10"/>
<rect x="10" y="299" width="30" height="30" fill="#38B2B8"/>
<rect x="50" y="338" width="30" height="30" fill="#38B2B8"/>
<mask id="path-20-outside-1_1_3" maskUnits="userSpaceOnUse" x="380" y="65" width="1734" height="318" fill="black">
<rect fill="white" x="380" y="65" width="1734" height="318"/>
<path d="M600.179 160.727L527.714 368H462.942L390.477 160.727H451.202L494.249 309.03H496.408L539.32 160.727H600.179ZM606.797 368V160.727H664.282V368H606.797ZM635.674 134.009C627.128 134.009 619.796 131.175 613.679 125.507C607.651 119.75 604.637 112.867 604.637 104.861C604.637 96.9441 607.651 90.152 613.679 84.4844C619.796 78.7268 627.128 75.848 635.674 75.848C644.221 75.848 651.508 78.7268 657.535 84.4844C663.653 90.152 666.711 96.9441 666.711 104.861C666.711 112.867 663.653 119.75 657.535 125.507C651.508 131.175 644.221 134.009 635.674 134.009ZM859.989 219.832L807.361 223.071C806.462 218.573 804.527 214.525 801.559 210.926C798.59 207.238 794.677 204.314 789.819 202.155C785.051 199.906 779.338 198.781 772.681 198.781C763.775 198.781 756.263 200.67 750.145 204.449C744.028 208.137 740.969 213.085 740.969 219.293C740.969 224.241 742.948 228.424 746.907 231.842C750.865 235.261 757.657 238.005 767.283 240.074L804.797 247.631C824.949 251.769 839.973 258.426 849.868 267.602C859.764 276.778 864.712 288.833 864.712 303.767C864.712 317.351 860.709 329.271 852.702 339.527C844.786 349.783 833.9 357.789 820.046 363.547C806.282 369.214 790.403 372.048 772.411 372.048C744.973 372.048 723.112 366.336 706.829 354.911C690.635 343.395 681.144 327.742 678.356 307.95L734.897 304.982C736.606 313.348 740.744 319.735 747.312 324.143C753.879 328.462 762.29 330.621 772.546 330.621C782.622 330.621 790.718 328.687 796.836 324.818C803.043 320.86 806.192 315.777 806.282 309.57C806.192 304.352 803.988 300.079 799.67 296.75C795.351 293.331 788.694 290.723 779.698 288.923L743.803 281.771C723.562 277.723 708.493 270.706 698.597 260.72C688.791 250.734 683.888 238.005 683.888 222.531C683.888 209.217 687.487 197.747 694.684 188.121C701.971 178.495 712.181 171.073 725.316 165.855C738.54 160.637 754.014 158.028 771.736 158.028C797.915 158.028 818.517 163.561 833.54 174.626C848.654 185.692 857.47 200.76 859.989 219.832ZM1011.03 279.747V160.727H1068.52V368H1013.32V330.351H1011.16C1006.49 342.496 998.705 352.257 987.819 359.634C977.024 367.01 963.845 370.699 948.281 370.699C934.427 370.699 922.237 367.55 911.712 361.253C901.186 354.955 892.954 346.004 887.017 334.399C881.169 322.794 878.201 308.895 878.111 292.702V160.727H935.596V282.446C935.686 294.681 938.97 304.352 945.447 311.459C951.925 318.566 960.606 322.119 971.491 322.119C978.418 322.119 984.896 320.545 990.923 317.396C996.951 314.158 1001.81 309.39 1005.5 303.092C1009.28 296.795 1011.12 289.013 1011.03 279.747ZM1150.8 371.913C1137.58 371.913 1125.79 369.619 1115.45 365.031C1105.1 360.353 1096.92 353.471 1090.89 344.385C1084.95 335.209 1081.98 323.784 1081.98 310.109C1081.98 298.594 1084.1 288.923 1088.32 281.097C1092.55 273.27 1098.31 266.973 1105.6 262.205C1112.88 257.437 1121.16 253.838 1130.43 251.409C1139.78 248.98 1149.59 247.271 1159.84 246.281C1171.9 245.022 1181.61 243.852 1188.99 242.773C1196.37 241.603 1201.72 239.894 1205.05 237.645C1208.38 235.396 1210.04 232.067 1210.04 227.659V226.849C1210.04 218.303 1207.34 211.691 1201.95 207.013C1196.64 202.335 1189.08 199.996 1179.28 199.996C1168.93 199.996 1160.7 202.29 1154.58 206.878C1148.46 211.376 1144.42 217.044 1142.44 223.881L1089.27 219.562C1091.97 206.968 1097.28 196.082 1105.19 186.906C1113.11 177.64 1123.32 170.533 1135.82 165.585C1148.42 160.547 1162.99 158.028 1179.55 158.028C1191.06 158.028 1202.08 159.378 1212.61 162.077C1223.22 164.776 1232.62 168.959 1240.81 174.626C1249.09 180.294 1255.61 187.581 1260.38 196.487C1265.14 205.303 1267.53 215.874 1267.53 228.199V368H1213.01V339.257H1211.39C1208.06 345.734 1203.61 351.447 1198.03 356.395C1192.45 361.253 1185.75 365.076 1177.93 367.865C1170.1 370.564 1161.06 371.913 1150.8 371.913ZM1167.27 332.24C1175.72 332.24 1183.19 330.576 1189.67 327.247C1196.14 323.829 1201.23 319.241 1204.91 313.483C1208.6 307.725 1210.45 301.203 1210.45 293.916V271.92C1208.65 273.09 1206.17 274.17 1203.03 275.159C1199.97 276.059 1196.5 276.913 1192.63 277.723C1188.77 278.443 1184.9 279.117 1181.03 279.747C1177.16 280.287 1173.65 280.782 1170.5 281.232C1163.76 282.221 1157.86 283.795 1152.83 285.955C1147.79 288.114 1143.88 291.037 1141.09 294.726C1138.3 298.324 1136.9 302.822 1136.9 308.22C1136.9 316.047 1139.74 322.029 1145.4 326.168C1151.16 330.216 1158.45 332.24 1167.27 332.24ZM1346.81 91.6364V368H1289.33V91.6364H1346.81ZM1370.06 368V160.727H1427.55V368H1370.06ZM1398.94 134.009C1390.39 134.009 1383.06 131.175 1376.94 125.507C1370.92 119.75 1367.9 112.867 1367.9 104.861C1367.9 96.9441 1370.92 90.152 1376.94 84.4844C1383.06 78.7268 1390.39 75.848 1398.94 75.848C1407.49 75.848 1414.77 78.7268 1420.8 84.4844C1426.92 90.152 1429.98 96.9441 1429.98 104.861C1429.98 112.867 1426.92 119.75 1420.8 125.507C1414.77 131.175 1407.49 134.009 1398.94 134.009ZM1449.72 368V333.724L1551.2 208.092V206.608H1453.23V160.727H1620.42V198.107L1525.15 320.635V322.119H1623.93V368H1449.72ZM1733.61 372.048C1712.29 372.048 1693.94 367.73 1678.55 359.094C1663.26 350.367 1651.47 338.043 1643.2 322.119C1634.92 306.106 1630.78 287.169 1630.78 265.308C1630.78 243.987 1634.92 225.275 1643.2 209.172C1651.47 193.069 1663.12 180.519 1678.15 171.523C1693.26 162.527 1710.98 158.028 1731.32 158.028C1744.99 158.028 1757.72 160.232 1769.5 164.641C1781.38 168.959 1791.73 175.481 1800.54 184.207C1809.45 192.934 1816.38 203.909 1821.32 217.134C1826.27 230.268 1828.74 245.652 1828.74 263.284V279.072H1653.72V243.447H1774.63C1774.63 235.171 1772.83 227.839 1769.23 221.452C1765.64 215.064 1760.64 210.071 1754.26 206.473C1747.96 202.785 1740.63 200.94 1732.26 200.94C1723.53 200.94 1715.8 202.964 1709.05 207.013C1702.39 210.971 1697.18 216.324 1693.4 223.071C1689.62 229.728 1687.68 237.15 1687.59 245.337V279.207C1687.59 289.463 1689.48 298.324 1693.26 305.791C1697.13 313.258 1702.57 319.016 1709.59 323.064C1716.61 327.112 1724.93 329.136 1734.55 329.136C1740.94 329.136 1746.79 328.237 1752.1 326.438C1757.4 324.638 1761.95 321.939 1765.73 318.341C1769.5 314.742 1772.38 310.334 1774.36 305.116L1827.53 308.625C1824.83 321.4 1819.3 332.555 1810.93 342.091C1802.66 351.537 1791.95 358.914 1778.82 364.222C1765.77 369.439 1750.7 372.048 1733.61 372.048ZM1908.61 368V160.727H1966.09V368H1908.61ZM1937.49 134.009C1928.94 134.009 1921.61 131.175 1915.49 125.507C1909.46 119.75 1906.45 112.867 1906.45 104.861C1906.45 96.9441 1909.46 90.152 1915.49 84.4844C1921.61 78.7268 1928.94 75.848 1937.49 75.848C1946.03 75.848 1953.32 78.7268 1959.35 84.4844C1965.46 90.152 1968.52 96.9441 1968.52 104.861C1968.52 112.867 1965.46 119.75 1959.35 125.507C1953.32 131.175 1946.03 134.009 1937.49 134.009ZM2099.59 160.727V203.909H1974.77V160.727H2099.59ZM2003.11 111.068H2060.59V304.307C2060.59 309.615 2061.4 313.753 2063.02 316.722C2064.64 319.6 2066.89 321.625 2069.77 322.794C2072.74 323.964 2076.16 324.548 2080.03 324.548C2082.72 324.548 2085.42 324.323 2088.12 323.874C2090.82 323.334 2092.89 322.929 2094.33 322.659L2103.37 365.436C2100.49 366.336 2096.44 367.37 2091.23 368.54C2086.01 369.799 2079.67 370.564 2072.2 370.834C2058.34 371.374 2046.2 369.529 2035.76 365.301C2025.42 361.073 2017.37 354.506 2011.61 345.599C2005.85 336.693 2003.02 325.448 2003.11 311.864V111.068Z"/>
</mask>
<path d="M600.179 160.727L527.714 368H462.942L390.477 160.727H451.202L494.249 309.03H496.408L539.32 160.727H600.179ZM606.797 368V160.727H664.282V368H606.797ZM635.674 134.009C627.128 134.009 619.796 131.175 613.679 125.507C607.651 119.75 604.637 112.867 604.637 104.861C604.637 96.9441 607.651 90.152 613.679 84.4844C619.796 78.7268 627.128 75.848 635.674 75.848C644.221 75.848 651.508 78.7268 657.535 84.4844C663.653 90.152 666.711 96.9441 666.711 104.861C666.711 112.867 663.653 119.75 657.535 125.507C651.508 131.175 644.221 134.009 635.674 134.009ZM859.989 219.832L807.361 223.071C806.462 218.573 804.527 214.525 801.559 210.926C798.59 207.238 794.677 204.314 789.819 202.155C785.051 199.906 779.338 198.781 772.681 198.781C763.775 198.781 756.263 200.67 750.145 204.449C744.028 208.137 740.969 213.085 740.969 219.293C740.969 224.241 742.948 228.424 746.907 231.842C750.865 235.261 757.657 238.005 767.283 240.074L804.797 247.631C824.949 251.769 839.973 258.426 849.868 267.602C859.764 276.778 864.712 288.833 864.712 303.767C864.712 317.351 860.709 329.271 852.702 339.527C844.786 349.783 833.9 357.789 820.046 363.547C806.282 369.214 790.403 372.048 772.411 372.048C744.973 372.048 723.112 366.336 706.829 354.911C690.635 343.395 681.144 327.742 678.356 307.95L734.897 304.982C736.606 313.348 740.744 319.735 747.312 324.143C753.879 328.462 762.29 330.621 772.546 330.621C782.622 330.621 790.718 328.687 796.836 324.818C803.043 320.86 806.192 315.777 806.282 309.57C806.192 304.352 803.988 300.079 799.67 296.75C795.351 293.331 788.694 290.723 779.698 288.923L743.803 281.771C723.562 277.723 708.493 270.706 698.597 260.72C688.791 250.734 683.888 238.005 683.888 222.531C683.888 209.217 687.487 197.747 694.684 188.121C701.971 178.495 712.181 171.073 725.316 165.855C738.54 160.637 754.014 158.028 771.736 158.028C797.915 158.028 818.517 163.561 833.54 174.626C848.654 185.692 857.47 200.76 859.989 219.832ZM1011.03 279.747V160.727H1068.52V368H1013.32V330.351H1011.16C1006.49 342.496 998.705 352.257 987.819 359.634C977.024 367.01 963.845 370.699 948.281 370.699C934.427 370.699 922.237 367.55 911.712 361.253C901.186 354.955 892.954 346.004 887.017 334.399C881.169 322.794 878.201 308.895 878.111 292.702V160.727H935.596V282.446C935.686 294.681 938.97 304.352 945.447 311.459C951.925 318.566 960.606 322.119 971.491 322.119C978.418 322.119 984.896 320.545 990.923 317.396C996.951 314.158 1001.81 309.39 1005.5 303.092C1009.28 296.795 1011.12 289.013 1011.03 279.747ZM1150.8 371.913C1137.58 371.913 1125.79 369.619 1115.45 365.031C1105.1 360.353 1096.92 353.471 1090.89 344.385C1084.95 335.209 1081.98 323.784 1081.98 310.109C1081.98 298.594 1084.1 288.923 1088.32 281.097C1092.55 273.27 1098.31 266.973 1105.6 262.205C1112.88 257.437 1121.16 253.838 1130.43 251.409C1139.78 248.98 1149.59 247.271 1159.84 246.281C1171.9 245.022 1181.61 243.852 1188.99 242.773C1196.37 241.603 1201.72 239.894 1205.05 237.645C1208.38 235.396 1210.04 232.067 1210.04 227.659V226.849C1210.04 218.303 1207.34 211.691 1201.95 207.013C1196.64 202.335 1189.08 199.996 1179.28 199.996C1168.93 199.996 1160.7 202.29 1154.58 206.878C1148.46 211.376 1144.42 217.044 1142.44 223.881L1089.27 219.562C1091.97 206.968 1097.28 196.082 1105.19 186.906C1113.11 177.64 1123.32 170.533 1135.82 165.585C1148.42 160.547 1162.99 158.028 1179.55 158.028C1191.06 158.028 1202.08 159.378 1212.61 162.077C1223.22 164.776 1232.62 168.959 1240.81 174.626C1249.09 180.294 1255.61 187.581 1260.38 196.487C1265.14 205.303 1267.53 215.874 1267.53 228.199V368H1213.01V339.257H1211.39C1208.06 345.734 1203.61 351.447 1198.03 356.395C1192.45 361.253 1185.75 365.076 1177.93 367.865C1170.1 370.564 1161.06 371.913 1150.8 371.913ZM1167.27 332.24C1175.72 332.24 1183.19 330.576 1189.67 327.247C1196.14 323.829 1201.23 319.241 1204.91 313.483C1208.6 307.725 1210.45 301.203 1210.45 293.916V271.92C1208.65 273.09 1206.17 274.17 1203.03 275.159C1199.97 276.059 1196.5 276.913 1192.63 277.723C1188.77 278.443 1184.9 279.117 1181.03 279.747C1177.16 280.287 1173.65 280.782 1170.5 281.232C1163.76 282.221 1157.86 283.795 1152.83 285.955C1147.79 288.114 1143.88 291.037 1141.09 294.726C1138.3 298.324 1136.9 302.822 1136.9 308.22C1136.9 316.047 1139.74 322.029 1145.4 326.168C1151.16 330.216 1158.45 332.24 1167.27 332.24ZM1346.81 91.6364V368H1289.33V91.6364H1346.81ZM1370.06 368V160.727H1427.55V368H1370.06ZM1398.94 134.009C1390.39 134.009 1383.06 131.175 1376.94 125.507C1370.92 119.75 1367.9 112.867 1367.9 104.861C1367.9 96.9441 1370.92 90.152 1376.94 84.4844C1383.06 78.7268 1390.39 75.848 1398.94 75.848C1407.49 75.848 1414.77 78.7268 1420.8 84.4844C1426.92 90.152 1429.98 96.9441 1429.98 104.861C1429.98 112.867 1426.92 119.75 1420.8 125.507C1414.77 131.175 1407.49 134.009 1398.94 134.009ZM1449.72 368V333.724L1551.2 208.092V206.608H1453.23V160.727H1620.42V198.107L1525.15 320.635V322.119H1623.93V368H1449.72ZM1733.61 372.048C1712.29 372.048 1693.94 367.73 1678.55 359.094C1663.26 350.367 1651.47 338.043 1643.2 322.119C1634.92 306.106 1630.78 287.169 1630.78 265.308C1630.78 243.987 1634.92 225.275 1643.2 209.172C1651.47 193.069 1663.12 180.519 1678.15 171.523C1693.26 162.527 1710.98 158.028 1731.32 158.028C1744.99 158.028 1757.72 160.232 1769.5 164.641C1781.38 168.959 1791.73 175.481 1800.54 184.207C1809.45 192.934 1816.38 203.909 1821.32 217.134C1826.27 230.268 1828.74 245.652 1828.74 263.284V279.072H1653.72V243.447H1774.63C1774.63 235.171 1772.83 227.839 1769.23 221.452C1765.64 215.064 1760.64 210.071 1754.26 206.473C1747.96 202.785 1740.63 200.94 1732.26 200.94C1723.53 200.94 1715.8 202.964 1709.05 207.013C1702.39 210.971 1697.18 216.324 1693.4 223.071C1689.62 229.728 1687.68 237.15 1687.59 245.337V279.207C1687.59 289.463 1689.48 298.324 1693.26 305.791C1697.13 313.258 1702.57 319.016 1709.59 323.064C1716.61 327.112 1724.93 329.136 1734.55 329.136C1740.94 329.136 1746.79 328.237 1752.1 326.438C1757.4 324.638 1761.95 321.939 1765.73 318.341C1769.5 314.742 1772.38 310.334 1774.36 305.116L1827.53 308.625C1824.83 321.4 1819.3 332.555 1810.93 342.091C1802.66 351.537 1791.95 358.914 1778.82 364.222C1765.77 369.439 1750.7 372.048 1733.61 372.048ZM1908.61 368V160.727H1966.09V368H1908.61ZM1937.49 134.009C1928.94 134.009 1921.61 131.175 1915.49 125.507C1909.46 119.75 1906.45 112.867 1906.45 104.861C1906.45 96.9441 1909.46 90.152 1915.49 84.4844C1921.61 78.7268 1928.94 75.848 1937.49 75.848C1946.03 75.848 1953.32 78.7268 1959.35 84.4844C1965.46 90.152 1968.52 96.9441 1968.52 104.861C1968.52 112.867 1965.46 119.75 1959.35 125.507C1953.32 131.175 1946.03 134.009 1937.49 134.009ZM2099.59 160.727V203.909H1974.77V160.727H2099.59ZM2003.11 111.068H2060.59V304.307C2060.59 309.615 2061.4 313.753 2063.02 316.722C2064.64 319.6 2066.89 321.625 2069.77 322.794C2072.74 323.964 2076.16 324.548 2080.03 324.548C2082.72 324.548 2085.42 324.323 2088.12 323.874C2090.82 323.334 2092.89 322.929 2094.33 322.659L2103.37 365.436C2100.49 366.336 2096.44 367.37 2091.23 368.54C2086.01 369.799 2079.67 370.564 2072.2 370.834C2058.34 371.374 2046.2 369.529 2035.76 365.301C2025.42 361.073 2017.37 354.506 2011.61 345.599C2005.85 336.693 2003.02 325.448 2003.11 311.864V111.068Z" fill="white"/>
<path d="M600.179 160.727L609.619 164.027C610.688 160.969 610.209 157.582 608.334 154.939C606.458 152.297 603.419 150.727 600.179 150.727V160.727ZM527.714 368V378C531.965 378 535.751 375.313 537.154 371.3L527.714 368ZM462.942 368L453.502 371.3C454.905 375.313 458.691 378 462.942 378V368ZM390.477 160.727V150.727C387.237 150.727 384.198 152.297 382.322 154.939C380.447 157.582 379.968 160.969 381.038 164.027L390.477 160.727ZM451.202 160.727L460.805 157.94C459.565 153.667 455.651 150.727 451.202 150.727V160.727ZM494.249 309.03L484.645 311.817C485.885 316.09 489.799 319.03 494.249 319.03V309.03ZM496.408 309.03V319.03C500.86 319.03 504.776 316.086 506.014 311.809L496.408 309.03ZM539.32 160.727V150.727C534.867 150.727 530.951 153.671 529.714 157.948L539.32 160.727ZM590.739 157.427L518.275 364.7L537.154 371.3L609.619 164.027L590.739 157.427ZM527.714 358H462.942V378H527.714V358ZM472.381 364.7L399.917 157.427L381.038 164.027L453.502 371.3L472.381 364.7ZM390.477 170.727H451.202V150.727H390.477V170.727ZM441.598 163.515L484.645 311.817L503.852 306.242L460.805 157.94L441.598 163.515ZM494.249 319.03H496.408V299.03H494.249V319.03ZM506.014 311.809L548.926 163.507L529.714 157.948L486.802 306.25L506.014 311.809ZM539.32 170.727H600.179V150.727H539.32V170.727ZM606.797 368H596.797C596.797 373.523 601.274 378 606.797 378V368ZM606.797 160.727V150.727C601.274 150.727 596.797 155.204 596.797 160.727H606.797ZM664.282 160.727H674.282C674.282 155.204 669.805 150.727 664.282 150.727V160.727ZM664.282 368V378C669.805 378 674.282 373.523 674.282 368H664.282ZM613.679 125.507L606.771 132.738C606.808 132.773 606.845 132.808 606.882 132.843L613.679 125.507ZM613.679 84.4844L620.529 91.7696L620.532 91.7664L613.679 84.4844ZM657.535 84.4844L650.628 91.7155C650.665 91.7506 650.702 91.7854 650.739 91.82L657.535 84.4844ZM657.535 125.507L664.385 132.792L664.389 132.789L657.535 125.507ZM616.797 368V160.727H596.797V368H616.797ZM606.797 170.727H664.282V150.727H606.797V170.727ZM654.282 160.727V368H674.282V160.727H654.282ZM664.282 358H606.797V378H664.282V358ZM635.674 124.009C629.579 124.009 624.693 122.08 620.475 118.171L606.882 132.843C614.899 140.27 624.677 144.009 635.674 144.009V124.009ZM620.586 118.276C616.443 114.318 614.637 110.012 614.637 104.861H594.637C594.637 115.723 598.86 125.181 606.771 132.738L620.586 118.276ZM614.637 104.861C614.637 99.84 616.409 95.6431 620.529 91.7696L606.828 77.1992C598.893 84.6608 594.637 94.0483 594.637 104.861H614.637ZM620.532 91.7664C624.759 87.788 629.626 85.848 635.674 85.848V65.848C624.63 65.848 614.833 69.6656 606.825 77.2024L620.532 91.7664ZM635.674 85.848C641.72 85.848 646.513 87.7845 650.628 91.7155L664.443 77.2533C656.503 69.6691 646.721 65.848 635.674 65.848V85.848ZM650.739 91.82C654.937 95.7089 656.711 99.8918 656.711 104.861H676.711C676.711 93.9964 672.369 84.5951 664.331 77.1488L650.739 91.82ZM656.711 104.861C656.711 109.961 654.902 114.253 650.682 118.225L664.389 132.789C672.403 125.246 676.711 115.774 676.711 104.861H656.711ZM650.685 118.222C646.579 122.083 641.768 124.009 635.674 124.009V144.009C646.674 144.009 656.437 140.266 664.385 132.792L650.685 118.222ZM859.989 219.832L860.603 229.814C863.372 229.643 865.945 228.331 867.708 226.19C869.471 224.049 870.266 221.273 869.903 218.523L859.989 219.832ZM807.361 223.071L797.555 225.032C798.536 229.934 802.986 233.359 807.976 233.052L807.361 223.071ZM801.559 210.926L793.769 217.196C793.794 217.228 793.819 217.259 793.845 217.29L801.559 210.926ZM789.819 202.155L785.553 211.199C785.62 211.231 785.689 211.262 785.757 211.293L789.819 202.155ZM750.145 204.449L755.309 213.013C755.339 212.994 755.37 212.976 755.4 212.957L750.145 204.449ZM746.907 231.842L740.371 239.411L740.371 239.411L746.907 231.842ZM767.283 240.074L765.182 249.851C765.224 249.86 765.266 249.868 765.308 249.877L767.283 240.074ZM804.797 247.631L806.809 237.835C806.797 237.833 806.784 237.83 806.772 237.828L804.797 247.631ZM849.868 267.602L843.069 274.935L843.069 274.935L849.868 267.602ZM852.702 339.527L844.82 333.373C844.809 333.388 844.797 333.402 844.786 333.416L852.702 339.527ZM820.046 363.547L823.853 372.794C823.864 372.79 823.874 372.785 823.884 372.781L820.046 363.547ZM706.829 354.911L701.033 363.06C701.051 363.072 701.068 363.084 701.085 363.096L706.829 354.911ZM678.356 307.95L677.831 297.964C675.031 298.111 672.421 299.427 670.638 301.591C668.855 303.755 668.062 306.569 668.453 309.346L678.356 307.95ZM734.897 304.982L744.694 302.98C743.704 298.131 739.315 294.736 734.372 294.995L734.897 304.982ZM747.312 324.143L741.738 332.446C741.765 332.464 741.791 332.482 741.818 332.499L747.312 324.143ZM796.836 324.818L802.18 333.27C802.191 333.263 802.202 333.257 802.212 333.25L796.836 324.818ZM806.282 309.57L816.281 309.715C816.282 309.609 816.282 309.503 816.28 309.397L806.282 309.57ZM799.67 296.75L793.462 304.59C793.496 304.617 793.53 304.644 793.564 304.67L799.67 296.75ZM779.698 288.923L781.659 279.117L781.652 279.116L779.698 288.923ZM743.803 281.771L741.842 291.577L741.849 291.579L743.803 281.771ZM698.597 260.72L691.462 267.727C691.473 267.738 691.483 267.748 691.494 267.759L698.597 260.72ZM694.684 188.121L686.711 182.085C686.699 182.101 686.687 182.117 686.675 182.133L694.684 188.121ZM725.316 165.855L721.646 156.553C721.638 156.556 721.631 156.559 721.624 156.562L725.316 165.855ZM833.54 174.626L827.61 182.678C827.618 182.684 827.625 182.689 827.633 182.695L833.54 174.626ZM859.375 209.851L806.747 213.09L807.976 233.052L860.603 229.814L859.375 209.851ZM817.167 221.11C815.938 214.966 813.272 209.411 809.272 204.562L793.845 217.29C795.782 219.638 796.985 222.18 797.555 225.032L817.167 221.11ZM809.349 204.656C805.266 199.583 800.011 195.741 793.88 193.017L785.757 211.293C789.342 212.886 791.914 214.892 793.769 217.196L809.349 204.656ZM794.085 193.11C787.68 190.089 780.437 188.781 772.681 188.781V208.781C778.239 208.781 782.421 209.722 785.553 211.199L794.085 193.11ZM772.681 188.781C762.36 188.781 752.925 190.978 744.89 195.941L755.4 212.957C759.601 210.362 765.189 208.781 772.681 208.781V188.781ZM744.982 195.885C736.4 201.059 730.969 208.996 730.969 219.293H750.969C750.969 217.175 751.656 215.215 755.309 213.013L744.982 195.885ZM730.969 219.293C730.969 227.33 734.356 234.216 740.371 239.411L753.443 224.274C751.541 222.632 750.969 221.151 750.969 219.293H730.969ZM740.371 239.411C746.287 244.52 755.126 247.689 765.182 249.851L769.385 230.297C760.188 228.32 755.443 226.002 753.443 224.274L740.371 239.411ZM765.308 249.877L802.823 257.434L806.772 237.828L769.258 230.271L765.308 249.877ZM802.786 257.426C822.014 261.375 835.041 267.491 843.069 274.935L856.668 260.27C844.904 249.361 827.884 242.163 806.809 237.835L802.786 257.426ZM843.069 274.935C850.695 282.006 854.712 291.287 854.712 303.767H874.712C874.712 286.379 868.834 271.551 856.668 260.27L843.069 274.935ZM854.712 303.767C854.712 315.227 851.391 324.957 844.82 333.373L860.585 345.681C870.027 333.586 874.712 319.476 874.712 303.767H854.712ZM844.786 333.416C838.092 342.089 828.711 349.117 816.208 354.313L823.884 372.781C839.089 366.462 851.479 357.477 860.618 345.638L844.786 333.416ZM816.238 354.3C803.906 359.378 789.363 362.048 772.411 362.048V382.048C791.444 382.048 808.658 379.051 823.853 372.794L816.238 354.3ZM772.411 362.048C746.269 362.048 726.643 356.597 712.572 346.725L701.085 363.096C719.58 376.074 743.676 382.048 772.411 382.048V362.048ZM712.624 346.761C698.684 336.848 690.666 323.645 688.258 306.555L668.453 309.346C671.623 331.839 682.587 349.942 701.033 363.06L712.624 346.761ZM678.88 317.937L735.421 314.968L734.372 294.995L677.831 297.964L678.88 317.937ZM725.099 306.983C727.288 317.698 732.806 326.451 741.738 332.446L752.885 315.84C748.683 313.02 745.924 308.998 744.694 302.98L725.099 306.983ZM741.818 332.499C750.446 338.172 760.925 340.621 772.546 340.621V320.621C763.656 320.621 757.312 318.751 752.806 315.788L741.818 332.499ZM772.546 340.621C783.802 340.621 793.953 338.473 802.18 333.27L791.491 316.366C787.484 318.9 781.442 320.621 772.546 320.621V340.621ZM802.212 333.25C810.647 327.871 816.132 319.95 816.281 309.715L796.283 309.425C796.251 311.604 795.439 313.848 791.459 316.387L802.212 333.25ZM816.28 309.397C816.135 300.985 812.376 293.919 805.775 288.83L793.564 304.67C795.599 306.239 796.248 307.718 796.283 309.742L816.28 309.397ZM805.877 288.91C799.754 284.062 791.299 281.045 781.659 279.117L777.737 298.729C786.089 300.4 790.949 302.6 793.462 304.59L805.877 288.91ZM781.652 279.116L745.757 271.964L741.849 291.579L777.744 298.731L781.652 279.116ZM745.764 271.965C726.608 268.134 713.682 261.735 705.7 253.681L691.494 267.759C703.304 279.676 720.515 287.312 741.842 291.577L745.764 271.965ZM705.732 253.714C697.964 245.803 693.888 235.687 693.888 222.531H673.888C673.888 240.323 679.618 255.666 691.462 267.727L705.732 253.714ZM693.888 222.531C693.888 211.13 696.928 201.819 702.693 194.109L686.675 182.133C678.046 193.674 673.888 207.303 673.888 222.531H693.888ZM702.657 194.156C708.665 186.22 717.278 179.809 729.008 175.149L721.624 156.562C707.085 162.337 695.276 170.77 686.711 182.085L702.657 194.156ZM728.986 175.157C740.793 170.499 754.971 168.028 771.736 168.028V148.028C753.056 148.028 736.288 150.776 721.646 156.553L728.986 175.157ZM771.736 168.028C796.618 168.028 814.874 173.298 827.61 182.678L839.471 166.575C822.159 153.824 799.212 148.028 771.736 148.028V168.028ZM827.633 182.695C840.479 192.1 847.903 204.693 850.075 221.142L869.903 218.523C867.038 196.828 856.829 179.284 839.448 166.558L827.633 182.695ZM1011.03 279.747H1001.03C1001.03 279.78 1001.03 279.812 1001.03 279.844L1011.03 279.747ZM1011.03 160.727V150.727C1005.51 150.727 1001.03 155.204 1001.03 160.727H1011.03ZM1068.52 160.727H1078.52C1078.52 155.204 1074.04 150.727 1068.52 150.727V160.727ZM1068.52 368V378C1074.04 378 1078.52 373.523 1078.52 368H1068.52ZM1013.32 368H1003.32C1003.32 373.523 1007.8 378 1013.32 378V368ZM1013.32 330.351H1023.32C1023.32 324.828 1018.85 320.351 1013.32 320.351V330.351ZM1011.16 330.351V320.351C1007.03 320.351 1003.32 322.897 1001.83 326.756L1011.16 330.351ZM987.819 359.634L982.209 351.355C982.199 351.363 982.188 351.37 982.178 351.377L987.819 359.634ZM911.712 361.253L916.846 352.671L916.846 352.671L911.712 361.253ZM887.017 334.399L878.087 338.899C878.096 338.917 878.105 338.936 878.114 338.954L887.017 334.399ZM878.111 292.702H868.111C868.111 292.72 868.111 292.739 868.111 292.757L878.111 292.702ZM878.111 160.727V150.727C872.588 150.727 868.111 155.204 868.111 160.727H878.111ZM935.596 160.727H945.596C945.596 155.204 941.119 150.727 935.596 150.727V160.727ZM935.596 282.446H925.596C925.596 282.471 925.597 282.495 925.597 282.52L935.596 282.446ZM945.447 311.459L952.838 304.723L952.838 304.723L945.447 311.459ZM990.923 317.396L995.553 326.26C995.588 326.242 995.622 326.224 995.656 326.205L990.923 317.396ZM1005.5 303.092L996.922 297.947C996.904 297.978 996.886 298.008 996.868 298.038L1005.5 303.092ZM1021.03 279.747V160.727H1001.03V279.747H1021.03ZM1011.03 170.727H1068.52V150.727H1011.03V170.727ZM1058.52 160.727V368H1078.52V160.727H1058.52ZM1068.52 358H1013.32V378H1068.52V358ZM1023.32 368V330.351H1003.32V368H1023.32ZM1013.32 320.351H1011.16V340.351H1013.32V320.351ZM1001.83 326.756C997.897 336.976 991.424 345.111 982.209 351.355L993.429 367.912C1005.99 359.403 1015.08 348.016 1020.5 333.945L1001.83 326.756ZM982.178 351.377C973.34 357.416 962.222 360.699 948.281 360.699V380.699C965.467 380.699 980.708 376.605 993.461 367.89L982.178 351.377ZM948.281 360.699C935.996 360.699 925.626 357.925 916.846 352.671L906.577 369.834C918.848 377.176 932.858 380.699 948.281 380.699V360.699ZM916.846 352.671C908.031 347.398 901.059 339.89 895.919 329.844L878.114 338.954C884.85 352.118 894.341 362.513 906.577 369.834L916.846 352.671ZM895.947 329.899C890.944 319.971 888.194 307.667 888.111 292.646L868.111 292.757C868.207 310.123 871.394 325.618 878.087 338.899L895.947 329.899ZM888.111 292.702V160.727H868.111V292.702H888.111ZM878.111 170.727H935.596V150.727H878.111V170.727ZM925.596 160.727V282.446H945.596V160.727H925.596ZM925.597 282.52C925.7 296.527 929.503 308.81 938.056 318.195L952.838 304.723C948.437 299.894 945.673 292.835 945.596 282.372L925.597 282.52ZM938.056 318.195C946.689 327.666 958.204 332.119 971.491 332.119V312.119C963.008 312.119 957.161 309.465 952.838 304.723L938.056 318.195ZM971.491 332.119C980 332.119 988.069 330.169 995.553 326.26L986.293 308.533C981.722 310.921 976.837 312.119 971.491 312.119V332.119ZM995.656 326.205C1003.41 322.038 1009.57 315.92 1014.13 308.146L996.868 298.038C994.044 302.86 990.49 306.277 986.19 308.587L995.656 326.205ZM1014.07 308.237C1019.02 299.992 1021.13 290.283 1021.03 279.65L1001.03 279.844C1001.11 287.743 999.532 293.598 996.922 297.947L1014.07 308.237ZM1115.45 365.031L1111.33 374.143C1111.35 374.153 1111.37 374.163 1111.39 374.173L1115.45 365.031ZM1090.89 344.385L1082.49 349.817C1082.51 349.849 1082.53 349.881 1082.55 349.913L1090.89 344.385ZM1088.32 281.097L1079.53 276.344L1079.53 276.344L1088.32 281.097ZM1105.6 262.205L1100.12 253.837L1100.12 253.837L1105.6 262.205ZM1130.43 251.409L1127.91 241.73C1127.91 241.732 1127.9 241.734 1127.89 241.736L1130.43 251.409ZM1159.84 246.281L1160.8 256.235C1160.83 256.232 1160.86 256.23 1160.88 256.227L1159.84 246.281ZM1188.99 242.773L1190.44 252.667C1190.48 252.662 1190.52 252.656 1190.56 252.649L1188.99 242.773ZM1205.05 237.645L1199.45 229.359L1199.45 229.359L1205.05 237.645ZM1201.95 207.013L1195.33 214.515C1195.35 214.533 1195.38 214.551 1195.4 214.57L1201.95 207.013ZM1154.58 206.878L1160.5 214.934C1160.53 214.916 1160.56 214.897 1160.58 214.878L1154.58 206.878ZM1142.44 223.881L1141.63 233.848C1146.37 234.233 1150.72 231.228 1152.04 226.661L1142.44 223.881ZM1089.27 219.562L1079.49 217.467C1078.89 220.282 1079.53 223.219 1081.24 225.529C1082.96 227.839 1085.59 229.297 1088.46 229.53L1089.27 219.562ZM1105.19 186.906L1112.76 193.439C1112.77 193.426 1112.78 193.414 1112.79 193.402L1105.19 186.906ZM1135.82 165.585L1139.5 174.884C1139.51 174.879 1139.53 174.875 1139.54 174.87L1135.82 165.585ZM1212.61 162.077L1210.12 171.763C1210.13 171.765 1210.14 171.767 1210.14 171.768L1212.61 162.077ZM1240.81 174.626L1235.12 182.848C1235.13 182.858 1235.15 182.868 1235.16 182.877L1240.81 174.626ZM1260.38 196.487L1251.56 201.207C1251.57 201.219 1251.57 201.232 1251.58 201.244L1260.38 196.487ZM1267.53 368V378C1273.05 378 1277.53 373.523 1277.53 368H1267.53ZM1213.01 368H1203.01C1203.01 373.523 1207.49 378 1213.01 378V368ZM1213.01 339.257H1223.01C1223.01 333.734 1218.53 329.257 1213.01 329.257V339.257ZM1211.39 339.257V329.257C1207.64 329.257 1204.21 331.353 1202.5 334.686L1211.39 339.257ZM1198.03 356.395L1204.6 363.936C1204.62 363.916 1204.65 363.896 1204.67 363.876L1198.03 356.395ZM1177.93 367.865L1181.19 377.319C1181.22 377.308 1181.25 377.296 1181.28 377.285L1177.93 367.865ZM1189.67 327.247L1194.24 336.141C1194.27 336.125 1194.3 336.108 1194.33 336.091L1189.67 327.247ZM1204.91 313.483L1196.49 308.089L1196.49 308.089L1204.91 313.483ZM1210.45 271.92H1220.45C1220.45 268.253 1218.44 264.88 1215.22 263.131C1211.99 261.382 1208.07 261.537 1205 263.536L1210.45 271.92ZM1203.03 275.159L1205.85 284.753C1205.91 284.735 1205.97 284.717 1206.02 284.699L1203.03 275.159ZM1192.63 277.723L1194.46 287.554C1194.54 287.541 1194.61 287.526 1194.68 287.511L1192.63 277.723ZM1181.03 279.747L1182.41 289.651C1182.49 289.641 1182.56 289.629 1182.64 289.617L1181.03 279.747ZM1170.5 281.232L1169.09 271.332C1169.08 271.334 1169.07 271.336 1169.05 271.337L1170.5 281.232ZM1152.83 285.955L1156.77 295.146L1156.77 295.146L1152.83 285.955ZM1141.09 294.726L1148.99 300.852C1149.02 300.82 1149.04 300.789 1149.06 300.757L1141.09 294.726ZM1145.4 326.168L1139.51 334.244C1139.56 334.279 1139.6 334.314 1139.65 334.348L1145.4 326.168ZM1150.8 361.913C1138.74 361.913 1128.37 359.824 1119.5 355.89L1111.39 374.173C1123.21 379.414 1136.41 381.913 1150.8 381.913V361.913ZM1119.57 355.919C1110.86 351.983 1104.16 346.31 1099.22 338.857L1082.55 349.913C1089.67 360.633 1099.34 368.724 1111.33 374.143L1119.57 355.919ZM1099.28 338.952C1094.63 331.758 1091.98 322.339 1091.98 310.109H1071.98C1071.98 325.228 1075.27 338.66 1082.49 349.817L1099.28 338.952ZM1091.98 310.109C1091.98 299.779 1093.88 291.849 1097.12 285.85L1079.53 276.344C1074.31 285.998 1071.98 297.409 1071.98 310.109H1091.98ZM1097.12 285.85C1100.58 279.452 1105.21 274.41 1111.07 270.572L1100.12 253.837C1091.41 259.535 1084.53 267.087 1079.53 276.344L1097.12 285.85ZM1111.07 270.572C1117.37 266.451 1124.64 263.265 1132.96 261.082L1127.89 241.736C1117.68 244.411 1108.4 248.422 1100.12 253.837L1111.07 270.572ZM1132.94 261.088C1141.75 258.8 1151.04 257.177 1160.8 256.235L1158.88 236.327C1148.14 237.364 1137.81 239.16 1127.91 241.73L1132.94 261.088ZM1160.88 256.227C1173 254.961 1182.87 253.775 1190.44 252.667L1187.54 232.878C1180.36 233.929 1170.8 235.083 1158.8 236.335L1160.88 256.227ZM1190.56 252.649C1198.35 251.415 1205.47 249.431 1210.65 245.931L1199.45 229.359C1197.97 230.357 1194.39 231.792 1187.43 232.896L1190.56 252.649ZM1210.65 245.931C1217.03 241.619 1220.04 235.008 1220.04 227.659H1200.04C1200.04 228.595 1199.87 228.948 1199.85 228.99C1199.83 229.021 1199.82 229.048 1199.78 229.086C1199.75 229.127 1199.65 229.224 1199.45 229.359L1210.65 245.931ZM1220.04 227.659V226.849H1200.04V227.659H1220.04ZM1220.04 226.849C1220.04 216.028 1216.52 206.408 1208.5 199.456L1195.4 214.57C1198.17 216.974 1200.04 220.578 1200.04 226.849H1220.04ZM1208.56 199.511C1200.82 192.694 1190.58 189.996 1179.28 189.996V209.996C1187.59 209.996 1192.45 211.975 1195.33 214.515L1208.56 199.511ZM1179.28 189.996C1167.52 189.996 1156.95 192.602 1148.58 198.878L1160.58 214.878C1164.45 211.978 1170.34 209.996 1179.28 209.996V189.996ZM1148.66 198.821C1140.89 204.531 1135.46 212.001 1132.83 221.1L1152.04 226.661C1153.37 222.086 1156.04 218.22 1160.5 214.934L1148.66 198.821ZM1143.25 213.913L1090.08 209.595L1088.46 229.53L1141.63 233.848L1143.25 213.913ZM1099.05 221.658C1101.42 210.597 1106.01 201.264 1112.76 193.439L1097.62 180.374C1088.54 190.9 1082.52 203.338 1079.49 217.467L1099.05 221.658ZM1112.79 193.402C1119.55 185.501 1128.36 179.295 1139.5 174.884L1132.14 156.287C1118.28 161.772 1106.67 169.78 1097.59 180.411L1112.79 193.402ZM1139.54 174.87C1150.72 170.396 1163.99 168.028 1179.55 168.028V148.028C1161.99 148.028 1146.11 150.699 1132.11 156.3L1139.54 174.87ZM1179.55 168.028C1190.27 168.028 1200.46 169.285 1210.12 171.763L1215.09 152.39C1203.71 149.471 1191.85 148.028 1179.55 148.028V168.028ZM1210.14 171.768C1219.72 174.203 1228 177.924 1235.12 182.848L1246.5 166.404C1237.24 159.994 1226.73 155.348 1215.07 152.385L1210.14 171.768ZM1235.16 182.877C1242.1 187.632 1247.54 193.704 1251.56 201.207L1269.19 191.767C1263.67 181.458 1256.07 172.956 1246.46 166.376L1235.16 182.877ZM1251.58 201.244C1255.4 208.3 1257.53 217.158 1257.53 228.199H1277.53C1277.53 214.59 1274.89 202.307 1269.17 191.73L1251.58 201.244ZM1257.53 228.199V368H1277.53V228.199H1257.53ZM1267.53 358H1213.01V378H1267.53V358ZM1223.01 368V339.257H1203.01V368H1223.01ZM1213.01 329.257H1211.39V349.257H1213.01V329.257ZM1202.5 334.686C1199.75 340.036 1196.07 344.768 1191.4 348.914L1204.67 363.876C1211.15 358.126 1216.38 351.433 1220.29 343.828L1202.5 334.686ZM1191.46 348.854C1186.94 352.795 1181.36 356.025 1174.57 358.445L1181.28 377.285C1190.14 374.128 1197.97 369.711 1204.6 363.936L1191.46 348.854ZM1174.67 358.411C1168.1 360.674 1160.2 361.913 1150.8 361.913V381.913C1161.91 381.913 1172.09 380.454 1181.19 377.319L1174.67 358.411ZM1167.27 342.24C1177.06 342.24 1186.13 340.306 1194.24 336.141L1185.1 318.353C1180.24 320.846 1174.39 322.24 1167.27 322.24V342.24ZM1194.33 336.091C1202.23 331.925 1208.65 326.193 1213.34 318.877L1196.49 308.089C1193.8 312.288 1190.06 315.732 1185 318.403L1194.33 336.091ZM1213.34 318.877C1218.12 311.402 1220.45 302.984 1220.45 293.916H1200.45C1200.45 299.422 1199.08 304.048 1196.49 308.089L1213.34 318.877ZM1220.45 293.916V271.92H1200.45V293.916H1220.45ZM1205 263.536C1204.25 264.021 1202.72 264.772 1200.03 265.619L1206.02 284.699C1209.63 283.567 1213.04 282.159 1215.9 280.305L1205 263.536ZM1200.2 265.565C1197.45 266.375 1194.25 267.168 1190.59 267.935L1194.68 287.511C1198.75 286.659 1202.48 285.743 1205.85 284.753L1200.2 265.565ZM1190.81 267.892C1187.01 268.598 1183.22 269.259 1179.42 269.877L1182.64 289.617C1186.58 288.975 1190.52 288.288 1194.46 287.554L1190.81 267.892ZM1179.65 269.843C1175.77 270.384 1172.25 270.88 1169.09 271.332L1171.92 291.131C1175.05 290.683 1178.55 290.19 1182.41 289.651L1179.65 269.843ZM1169.05 271.337C1161.65 272.423 1154.89 274.192 1148.89 276.763L1156.77 295.146C1160.84 293.399 1165.87 292.019 1171.96 291.126L1169.05 271.337ZM1148.89 276.763C1142.55 279.479 1137.13 283.383 1133.11 288.695L1149.06 300.757C1150.62 298.692 1153.03 296.748 1156.77 295.146L1148.89 276.763ZM1133.18 288.6C1128.79 294.261 1126.9 301.031 1126.9 308.22H1146.9C1146.9 304.614 1147.8 302.387 1148.99 300.852L1133.18 288.6ZM1126.9 308.22C1126.9 318.814 1130.94 327.985 1139.51 334.244L1151.3 318.091C1148.54 316.073 1146.9 313.279 1146.9 308.22H1126.9ZM1139.65 334.348C1147.48 339.85 1156.91 342.24 1167.27 342.24V322.24C1159.98 322.24 1154.85 320.582 1151.16 317.987L1139.65 334.348ZM1346.81 91.6364H1356.81C1356.81 86.1135 1352.34 81.6364 1346.81 81.6364V91.6364ZM1346.81 368V378C1352.34 378 1356.81 373.523 1356.81 368H1346.81ZM1289.33 368H1279.33C1279.33 373.523 1283.8 378 1289.33 378V368ZM1289.33 91.6364V81.6364C1283.8 81.6364 1279.33 86.1135 1279.33 91.6364H1289.33ZM1336.81 91.6364V368H1356.81V91.6364H1336.81ZM1346.81 358H1289.33V378H1346.81V358ZM1299.33 368V91.6364H1279.33V368H1299.33ZM1289.33 101.636H1346.81V81.6364H1289.33V101.636ZM1370.06 368H1360.06C1360.06 373.523 1364.54 378 1370.06 378V368ZM1370.06 160.727V150.727C1364.54 150.727 1360.06 155.204 1360.06 160.727H1370.06ZM1427.55 160.727H1437.55C1437.55 155.204 1433.07 150.727 1427.55 150.727V160.727ZM1427.55 368V378C1433.07 378 1437.55 373.523 1437.55 368H1427.55ZM1376.94 125.507L1370.04 132.738C1370.07 132.773 1370.11 132.808 1370.15 132.843L1376.94 125.507ZM1376.94 84.4844L1383.79 91.7696L1383.8 91.7664L1376.94 84.4844ZM1420.8 84.4844L1413.89 91.7155C1413.93 91.7506 1413.97 91.7854 1414 91.82L1420.8 84.4844ZM1420.8 125.507L1427.65 132.792L1427.65 132.789L1420.8 125.507ZM1380.06 368V160.727H1360.06V368H1380.06ZM1370.06 170.727H1427.55V150.727H1370.06V170.727ZM1417.55 160.727V368H1437.55V160.727H1417.55ZM1427.55 358H1370.06V378H1427.55V358ZM1398.94 124.009C1392.84 124.009 1387.96 122.08 1383.74 118.171L1370.15 132.843C1378.16 140.27 1387.94 144.009 1398.94 144.009V124.009ZM1383.85 118.276C1379.71 114.318 1377.9 110.012 1377.9 104.861H1357.9C1357.9 115.723 1362.13 125.181 1370.04 132.738L1383.85 118.276ZM1377.9 104.861C1377.9 99.84 1379.68 95.6431 1383.79 91.7696L1370.09 77.1992C1362.16 84.6608 1357.9 94.0483 1357.9 104.861H1377.9ZM1383.8 91.7664C1388.02 87.788 1392.89 85.848 1398.94 85.848V65.848C1387.9 65.848 1378.1 69.6656 1370.09 77.2024L1383.8 91.7664ZM1398.94 85.848C1404.99 85.848 1409.78 87.7845 1413.89 91.7155L1427.71 77.2533C1419.77 69.6691 1409.99 65.848 1398.94 65.848V85.848ZM1414 91.82C1418.2 95.7089 1419.98 99.8918 1419.98 104.861H1439.98C1439.98 93.9964 1435.63 84.5951 1427.6 77.1488L1414 91.82ZM1419.98 104.861C1419.98 109.961 1418.17 114.253 1413.95 118.225L1427.65 132.789C1435.67 125.246 1439.98 115.774 1439.98 104.861H1419.98ZM1413.95 118.222C1409.84 122.083 1405.03 124.009 1398.94 124.009V144.009C1409.94 144.009 1419.7 140.266 1427.65 132.792L1413.95 118.222ZM1449.72 368H1439.72C1439.72 373.523 1444.2 378 1449.72 378V368ZM1449.72 333.724L1441.94 327.441C1440.5 329.22 1439.72 331.438 1439.72 333.724H1449.72ZM1551.2 208.092L1558.97 214.376C1560.41 212.597 1561.2 210.379 1561.2 208.092H1551.2ZM1551.2 206.608H1561.2C1561.2 201.085 1556.72 196.608 1551.2 196.608V206.608ZM1453.23 206.608H1443.23C1443.23 212.131 1447.7 216.608 1453.23 216.608V206.608ZM1453.23 160.727V150.727C1447.7 150.727 1443.23 155.204 1443.23 160.727H1453.23ZM1620.42 160.727H1630.42C1630.42 155.204 1625.94 150.727 1620.42 150.727V160.727ZM1620.42 198.107L1628.32 204.245C1629.68 202.49 1630.42 200.33 1630.42 198.107H1620.42ZM1525.15 320.635L1517.26 314.497C1515.89 316.252 1515.15 318.412 1515.15 320.635H1525.15ZM1525.15 322.119H1515.15C1515.15 327.642 1519.63 332.119 1525.15 332.119V322.119ZM1623.93 322.119H1633.93C1633.93 316.596 1629.45 312.119 1623.93 312.119V322.119ZM1623.93 368V378C1629.45 378 1633.93 373.523 1633.93 368H1623.93ZM1459.72 368V333.724H1439.72V368H1459.72ZM1457.5 340.008L1558.97 214.376L1543.42 201.809L1441.94 327.441L1457.5 340.008ZM1561.2 208.092V206.608H1541.2V208.092H1561.2ZM1551.2 196.608H1453.23V216.608H1551.2V196.608ZM1463.23 206.608V160.727H1443.23V206.608H1463.23ZM1453.23 170.727H1620.42V150.727H1453.23V170.727ZM1610.42 160.727V198.107H1630.42V160.727H1610.42ZM1612.53 191.968L1517.26 314.497L1533.05 326.773L1628.32 204.245L1612.53 191.968ZM1515.15 320.635V322.119H1535.15V320.635H1515.15ZM1525.15 332.119H1623.93V312.119H1525.15V332.119ZM1613.93 322.119V368H1633.93V322.119H1613.93ZM1623.93 358H1449.72V378H1623.93V358ZM1678.55 359.094L1673.6 367.779C1673.62 367.791 1673.64 367.802 1673.66 367.814L1678.55 359.094ZM1643.2 322.119L1634.31 326.711C1634.32 326.718 1634.32 326.724 1634.32 326.731L1643.2 322.119ZM1643.2 209.172L1634.3 204.601L1634.3 204.601L1643.2 209.172ZM1678.15 171.523L1673.03 162.93C1673.03 162.934 1673.02 162.939 1673.01 162.943L1678.15 171.523ZM1769.5 164.641L1766 174.007C1766.03 174.018 1766.06 174.028 1766.09 174.039L1769.5 164.641ZM1800.54 184.207L1793.51 191.315C1793.52 191.327 1793.53 191.338 1793.54 191.35L1800.54 184.207ZM1821.32 217.134L1811.96 220.638C1811.96 220.645 1811.96 220.652 1811.96 220.659L1821.32 217.134ZM1828.74 279.072V289.072C1834.27 289.072 1838.74 284.595 1838.74 279.072H1828.74ZM1653.72 279.072H1643.72C1643.72 284.595 1648.2 289.072 1653.72 289.072V279.072ZM1653.72 243.447V233.447C1648.2 233.447 1643.72 237.925 1643.72 243.447H1653.72ZM1774.63 243.447V253.447C1780.16 253.447 1784.63 248.97 1784.63 243.447H1774.63ZM1769.23 221.452L1760.52 226.36L1760.52 226.36L1769.23 221.452ZM1754.26 206.473L1749.2 215.102C1749.25 215.13 1749.3 215.158 1749.35 215.185L1754.26 206.473ZM1709.05 207.013L1714.16 215.608C1714.17 215.601 1714.18 215.595 1714.2 215.588L1709.05 207.013ZM1693.4 223.071L1702.09 228.007C1702.1 227.99 1702.11 227.974 1702.12 227.957L1693.4 223.071ZM1687.59 245.337L1677.59 245.227C1677.59 245.263 1677.59 245.3 1677.59 245.337L1687.59 245.337ZM1693.26 305.791L1684.34 310.306C1684.35 310.335 1684.37 310.363 1684.38 310.391L1693.26 305.791ZM1752.1 326.438L1748.89 316.967L1748.89 316.967L1752.1 326.438ZM1765.73 318.341L1758.83 311.1L1758.83 311.1L1765.73 318.341ZM1774.36 305.116L1775.02 295.138C1770.63 294.849 1766.57 297.459 1765.01 301.57L1774.36 305.116ZM1827.53 308.625L1837.31 310.692C1837.91 307.855 1837.25 304.898 1835.5 302.586C1833.75 300.275 1831.08 298.838 1828.19 298.647L1827.53 308.625ZM1810.93 342.091L1803.42 335.496L1803.41 335.501L1810.93 342.091ZM1778.82 364.222L1782.53 373.506C1782.54 373.502 1782.55 373.498 1782.56 373.493L1778.82 364.222ZM1733.61 362.048C1713.65 362.048 1697.05 358.012 1683.45 350.374L1673.66 367.814C1690.82 377.448 1710.93 382.048 1733.61 382.048V362.048ZM1683.51 350.408C1669.92 342.654 1659.48 331.759 1652.07 317.507L1634.32 326.731C1643.47 344.326 1656.6 358.081 1673.6 367.779L1683.51 350.408ZM1652.08 317.528C1644.68 303.205 1640.78 285.907 1640.78 265.308H1620.78C1620.78 288.431 1625.16 309.007 1634.31 326.711L1652.08 317.528ZM1640.78 265.308C1640.78 245.296 1644.66 228.201 1652.09 213.743L1634.3 204.601C1625.18 222.349 1620.78 242.679 1620.78 265.308H1640.78ZM1652.09 213.743C1659.55 199.241 1669.92 188.106 1683.29 180.102L1673.01 162.943C1656.33 172.932 1643.4 186.896 1634.3 204.601L1652.09 213.743ZM1683.26 180.116C1696.6 172.176 1712.5 168.028 1731.32 168.028V148.028C1709.47 148.028 1689.92 152.877 1673.03 162.93L1683.26 180.116ZM1731.32 168.028C1743.9 168.028 1755.43 170.053 1766 174.007L1773.01 155.274C1760.01 150.412 1746.08 148.028 1731.32 148.028V168.028ZM1766.09 174.039C1776.63 177.873 1785.74 183.623 1793.51 191.315L1807.58 177.1C1797.71 167.339 1786.13 160.045 1772.92 155.243L1766.09 174.039ZM1793.54 191.35C1801.27 198.924 1807.45 208.603 1811.96 220.638L1830.69 213.629C1825.3 199.215 1817.62 186.944 1807.54 177.065L1793.54 191.35ZM1811.96 220.659C1816.4 232.419 1818.74 246.559 1818.74 263.284H1838.74C1838.74 244.744 1836.15 228.117 1830.68 213.608L1811.96 220.659ZM1818.74 263.284V279.072H1838.74V263.284H1818.74ZM1828.74 269.072H1653.72V289.072H1828.74V269.072ZM1663.72 279.072V243.447H1643.72V279.072H1663.72ZM1653.72 253.447H1774.63V233.447H1653.72V253.447ZM1784.63 243.447C1784.63 233.677 1782.49 224.614 1777.95 216.543L1760.52 226.36C1763.17 231.064 1764.63 236.665 1764.63 243.447H1784.63ZM1777.95 216.543C1773.45 208.564 1767.14 202.256 1759.16 197.761L1749.35 215.185C1754.14 217.887 1757.82 221.565 1760.52 226.36L1777.95 216.543ZM1759.31 197.844C1751.27 193.133 1742.14 190.94 1732.26 190.94V210.94C1739.11 210.94 1744.65 212.436 1749.2 215.102L1759.31 197.844ZM1732.26 190.94C1721.92 190.94 1712.37 193.358 1703.91 198.438L1714.2 215.588C1719.22 212.571 1725.14 210.94 1732.26 210.94V190.94ZM1703.94 198.417C1695.78 203.272 1689.31 209.903 1684.67 218.185L1702.12 227.957C1705.04 222.745 1709.01 218.67 1714.16 215.608L1703.94 198.417ZM1684.7 218.135C1680.03 226.367 1677.7 235.469 1677.59 245.227L1697.59 245.447C1697.67 238.832 1699.21 233.09 1702.09 228.007L1684.7 218.135ZM1677.59 245.337V279.207H1697.59V245.337H1677.59ZM1677.59 279.207C1677.59 290.684 1679.71 301.159 1684.34 310.306L1702.18 301.276C1699.26 295.49 1697.59 288.242 1697.59 279.207H1677.59ZM1684.38 310.391C1689.1 319.487 1695.86 326.685 1704.59 331.726L1714.59 314.402C1709.29 311.346 1705.17 307.029 1702.14 301.191L1684.38 310.391ZM1704.59 331.726C1713.39 336.803 1723.51 339.136 1734.55 339.136V319.136C1726.35 319.136 1719.82 317.422 1714.59 314.402L1704.59 331.726ZM1734.55 339.136C1741.88 339.136 1748.83 338.103 1755.31 335.908L1748.89 316.967C1744.75 318.37 1740 319.136 1734.55 319.136V339.136ZM1755.31 335.908C1761.89 333.678 1767.72 330.256 1772.62 325.582L1758.83 311.1C1756.18 313.623 1752.92 315.599 1748.89 316.967L1755.31 335.908ZM1772.62 325.582C1777.56 320.881 1781.24 315.181 1783.71 308.663L1765.01 301.57C1763.53 305.487 1761.45 308.604 1758.83 311.1L1772.62 325.582ZM1773.7 315.095L1826.87 318.603L1828.19 298.647L1775.02 295.138L1773.7 315.095ZM1817.75 306.558C1815.39 317.705 1810.62 327.288 1803.42 335.496L1818.45 348.686C1827.98 337.821 1834.27 325.094 1837.31 310.692L1817.75 306.558ZM1803.41 335.501C1796.29 343.627 1786.94 350.153 1775.07 354.95L1782.56 373.493C1796.96 367.675 1809.02 359.447 1818.45 348.681L1803.41 335.501ZM1775.1 354.937C1763.46 359.592 1749.7 362.048 1733.61 362.048V382.048C1751.71 382.048 1768.08 379.287 1782.53 373.506L1775.1 354.937ZM1908.61 368H1898.61C1898.61 373.523 1903.09 378 1908.61 378V368ZM1908.61 160.727V150.727C1903.09 150.727 1898.61 155.204 1898.61 160.727H1908.61ZM1966.09 160.727H1976.09C1976.09 155.204 1971.62 150.727 1966.09 150.727V160.727ZM1966.09 368V378C1971.62 378 1976.09 373.523 1976.09 368H1966.09ZM1915.49 125.507L1908.58 132.738C1908.62 132.773 1908.66 132.808 1908.69 132.843L1915.49 125.507ZM1915.49 84.4844L1922.34 91.7696L1922.34 91.7664L1915.49 84.4844ZM1959.35 84.4844L1952.44 91.7155C1952.48 91.7506 1952.51 91.7854 1952.55 91.82L1959.35 84.4844ZM1959.35 125.507L1966.2 132.792L1966.2 132.789L1959.35 125.507ZM1918.61 368V160.727H1898.61V368H1918.61ZM1908.61 170.727H1966.09V150.727H1908.61V170.727ZM1956.09 160.727V368H1976.09V160.727H1956.09ZM1966.09 358H1908.61V378H1966.09V358ZM1937.49 124.009C1931.39 124.009 1926.51 122.08 1922.29 118.171L1908.69 132.843C1916.71 140.27 1926.49 144.009 1937.49 144.009V124.009ZM1922.4 118.276C1918.25 114.318 1916.45 110.012 1916.45 104.861H1896.45C1896.45 115.723 1900.67 125.181 1908.58 132.738L1922.4 118.276ZM1916.45 104.861C1916.45 99.84 1918.22 95.6431 1922.34 91.7696L1908.64 77.1992C1900.7 84.6608 1896.45 94.0483 1896.45 104.861H1916.45ZM1922.34 91.7664C1926.57 87.788 1931.44 85.848 1937.49 85.848V65.848C1926.44 65.848 1916.64 69.6656 1908.64 77.2024L1922.34 91.7664ZM1937.49 85.848C1943.53 85.848 1948.32 87.7845 1952.44 91.7155L1966.25 77.2533C1958.31 69.6691 1948.53 65.848 1937.49 65.848V85.848ZM1952.55 91.82C1956.75 95.7089 1958.52 99.8918 1958.52 104.861H1978.52C1978.52 93.9964 1974.18 84.5951 1966.14 77.1488L1952.55 91.82ZM1958.52 104.861C1958.52 109.961 1956.71 114.253 1952.49 118.225L1966.2 132.789C1974.21 125.246 1978.52 115.774 1978.52 104.861H1958.52ZM1952.5 118.222C1948.39 122.083 1943.58 124.009 1937.49 124.009V144.009C1948.49 144.009 1958.25 140.266 1966.2 132.792L1952.5 118.222ZM2099.59 160.727H2109.59C2109.59 155.204 2105.11 150.727 2099.59 150.727V160.727ZM2099.59 203.909V213.909C2105.11 213.909 2109.59 209.432 2109.59 203.909H2099.59ZM1974.77 203.909H1964.77C1964.77 209.432 1969.25 213.909 1974.77 213.909V203.909ZM1974.77 160.727V150.727C1969.25 150.727 1964.77 155.204 1964.77 160.727H1974.77ZM2003.11 111.068V101.068C1997.58 101.068 1993.11 105.545 1993.11 111.068H2003.11ZM2060.59 111.068H2070.59C2070.59 105.545 2066.12 101.068 2060.59 101.068V111.068ZM2063.02 316.722L2054.24 321.51C2054.26 321.548 2054.29 321.586 2054.31 321.624L2063.02 316.722ZM2069.77 322.794L2066.01 332.059C2066.04 332.072 2066.07 332.085 2066.1 332.098L2069.77 322.794ZM2088.12 323.874L2089.77 333.738C2089.87 333.72 2089.98 333.7 2090.08 333.679L2088.12 323.874ZM2094.33 322.659L2104.11 320.591C2102.99 315.275 2097.83 311.829 2092.49 312.83L2094.33 322.659ZM2103.37 365.436L2106.35 374.981C2111.28 373.443 2114.22 368.414 2113.15 363.368L2103.37 365.436ZM2091.23 368.54L2089.04 358.782C2088.99 358.794 2088.93 358.806 2088.88 358.819L2091.23 368.54ZM2072.2 370.834L2071.84 360.84C2071.83 360.841 2071.82 360.841 2071.81 360.841L2072.2 370.834ZM2035.76 365.301L2031.98 374.558C2031.99 374.562 2032 374.565 2032.01 374.569L2035.76 365.301ZM2011.61 345.599L2020.01 340.17L2020.01 340.17L2011.61 345.599ZM2003.11 311.864L2013.11 311.93C2013.11 311.908 2013.11 311.886 2013.11 311.864L2003.11 311.864ZM2089.59 160.727V203.909H2109.59V160.727H2089.59ZM2099.59 193.909H1974.77V213.909H2099.59V193.909ZM1984.77 203.909V160.727H1964.77V203.909H1984.77ZM1974.77 170.727H2099.59V150.727H1974.77V170.727ZM2003.11 121.068H2060.59V101.068H2003.11V121.068ZM2050.59 111.068V304.307H2070.59V111.068H2050.59ZM2050.59 304.307C2050.59 310.425 2051.49 316.466 2054.24 321.51L2071.8 311.933C2071.31 311.039 2070.59 308.804 2070.59 304.307H2050.59ZM2054.31 321.624C2056.96 326.342 2060.89 329.982 2066.01 332.059L2073.53 313.529C2072.89 313.267 2072.32 312.859 2071.74 311.819L2054.31 321.624ZM2066.1 332.098C2070.46 333.814 2075.16 334.548 2080.03 334.548V314.548C2077.15 314.548 2075.02 314.113 2073.43 313.49L2066.1 332.098ZM2080.03 334.548C2083.28 334.548 2086.53 334.277 2089.77 333.738L2086.48 314.01C2084.31 314.37 2082.17 314.548 2080.03 314.548V334.548ZM2090.08 333.679C2092.77 333.142 2094.79 332.746 2096.17 332.488L2092.49 312.83C2090.99 313.111 2088.87 313.526 2086.16 314.068L2090.08 333.679ZM2084.55 324.727L2093.59 367.504L2113.15 363.368L2104.11 320.591L2084.55 324.727ZM2100.39 355.891C2097.9 356.67 2094.16 357.634 2089.04 358.782L2093.41 378.298C2098.73 377.106 2103.09 376.002 2106.35 374.981L2100.39 355.891ZM2088.88 358.819C2084.51 359.874 2078.87 360.586 2071.84 360.84L2072.56 380.827C2080.46 380.542 2087.51 379.725 2093.57 378.261L2088.88 358.819ZM2071.81 360.841C2059.05 361.338 2048.37 359.62 2039.52 356.033L2032.01 374.569C2044.03 379.438 2057.64 381.409 2072.59 380.826L2071.81 360.841ZM2039.55 356.044C2030.99 352.546 2024.59 347.263 2020.01 340.17L2003.21 351.028C2010.14 361.748 2019.85 369.6 2031.98 374.558L2039.55 356.044ZM2020.01 340.17C2015.57 333.304 2013.03 324.109 2013.11 311.93L1993.11 311.797C1993.01 326.787 1996.13 340.082 2003.21 351.028L2020.01 340.17ZM2013.11 311.864V111.068H1993.11V311.864H2013.11Z" fill="#182D38" mask="url(#path-20-outside-1_1_3)"/>
</g>
<defs>
<clipPath id="clip0_1_3">
<rect width="2254" height="460" fill="white"/>
</clipPath>
</defs>
</svg>
